<svg xmlns="http://www.w3.org/2000/svg" width="430" height="430" style="width:100%;height:100%;transform:translate3d(0,0,0);content-visibility:visible" viewBox="0 0 430 430"><defs><clipPath id="b"><path d="M0 0h430v430H0z"/></clipPath><clipPath id="f"><path d="M0 0h430v430H0z"/></clipPath><clipPath id="e"><path d="M0 0h430v430H0z"/></clipPath><clipPath id="c"><path d="M0 0h430v430H0z"/></clipPath><path id="a" style="display:none"/><mask id="d" mask-type="alpha"><use xmlns:ns1="http://www.w3.org/1999/xlink" ns1:href="#a"/></mask></defs><g clip-path="url(#b)"><g clip-path="url(#c)" style="display:none"><g style="display:none"><path fill="none" class="primary"/><path class="primary"/></g><g fill="none" style="display:none"><path class="secondary"/><path class="secondary"/><path class="secondary"/></g><g mask="url(#d)" style="mix-blend-mode:multiply;display:none"><path class="primary"/><path class="primary" style="mix-blend-mode:multiply"/></g></g><g clip-path="url(#e)" style="display:block"><path fill="#3A3347" d="M-155-135c-16.569 0-30 13.431-30 30v210c0 16.569 13.431 30 30 30h310c16.569 0 30-13.431 30-30v-210c0-16.569-13.431-30-30-30h-310z" class="primary" style="display:block" transform="translate(215 215)"/><g opacity=".4" style="mix-blend-mode:multiply;display:block"><path fill="#3A3347" d="M30 109.923v210c0 16.569 13.431 30 30 30h310c16.569 0 30-13.431 30-30v-210c0-16.569-13.431-30-30-30H60c-16.569 0-30 13.431-30 30zm20 0c0-5.523 4.477-10 10-10h310c5.523 0 10 4.477 10 10v210c0 5.523-4.477 10-10 10H60c-5.523 0-10-4.477-10-10v-210z" class="primary" opacity="1"/></g><g opacity=".3" style="mix-blend-mode:multiply;display:block"><path fill="#3A3347" d="M30 109.923c0-16.569 13.431-30 30-30h55c-16.569 0-30 13.431-30 30v210c0 16.569 13.431 30 30 30H60c-16.569 0-30-13.431-30-30v-210z" class="primary" opacity="1"/></g><path fill="none" stroke="#08A88A" stroke-linecap="round" stroke-width="7" d="M281 215h30m30 0h-30m0 30v-30m0-30v30m-115 0h30m30 0h-30m0 30v-30m0-30v30m-131 0v-27.778C95 174.949 104.949 165 117.222 165H145c12.273 0 22.222 9.949 22.222 22.222v4.167m0 47.222v4.167c0 12.273-9.949 22.222-22.222 22.222h-27.778C104.949 265 95 255.051 95 242.778V215" class="secondary" style="display:block"/><g fill="none" style="display:none"><path class="secondary"/><path class="secondary"/><path class="secondary"/></g></g><g clip-path="url(#f)" style="display:none"><path class="primary" style="display:none"/><g fill="none" style="display:none"><path class="secondary"/><path class="secondary"/><path class="secondary"/></g><g style="mix-blend-mode:multiply;display:none"><path class="primary"/><path class="primary" style="mix-blend-mode:multiply"/></g></g></g></svg>